<?xml version="1.0" encoding="utf-8"?>
<!-- Generator: Adobe Illustrator 14.0.0, SVG Export Plug-In . SVG Version: 6.00 Build 43363)  -->
<!DOCTYPE svg PUBLIC "-//W3C//DTD SVG 1.1//EN" "http://www.w3.org/Graphics/SVG/1.1/DTD/svg11.dtd">
<svg version="1.1" xmlns="http://www.w3.org/2000/svg" xmlns:xlink="http://www.w3.org/1999/xlink" x="0px" y="0px" width="1000px"
	 height="522.052px" viewBox="0 0 1000 522.052" enable-background="new 0 0 1000 522.052" xml:space="preserve">
<g id="_x31_0_x__x_10" display="none">
	<g display="inline">
		<polygon fill="#FFFFFF" stroke="#000000" points="527.612,-145.651 555.222,-193.475 527.612,-241.297 472.39,-241.297 
			444.778,-193.475 472.39,-145.651 		"/>
		<polygon fill="#FFFFFF" stroke="#000000" points="560.39,-95.151 615.612,-95.151 643.222,-142.975 615.612,-190.797 
			560.39,-190.797 532.78,-142.975 		"/>
		<polygon fill="#FFFFFF" stroke="#000000" points="648.39,-44.651 703.612,-44.651 731.222,-92.475 703.612,-140.297 
			648.39,-140.297 620.78,-92.475 		"/>
		<polygon fill="#FFFFFF" stroke="#000000" points="736.39,5.849 791.612,5.849 819.222,-41.975 791.612,-89.797 736.39,-89.797 
			708.78,-41.975 		"/>
		<polygon fill="#FFFFFF" stroke="#000000" points="824.39,56.349 879.612,56.349 907.222,8.525 879.612,-39.297 824.39,-39.297 
			796.78,8.525 		"/>
		<polygon fill="#FFFFFF" stroke="#000000" points="912.39,106.849 967.612,106.849 995.222,59.025 967.612,11.203 912.39,11.203 
			884.78,59.025 		"/>
		<polygon fill="#FFFFFF" stroke="#000000" points="1000.39,157.349 1055.612,157.349 1083.222,109.525 1055.612,61.703 
			1000.39,61.703 972.78,109.525 		"/>
		<polygon fill="#FFFFFF" stroke="#000000" points="1088.39,207.849 1143.612,207.849 1171.222,160.025 1143.612,112.203 
			1088.39,112.203 1060.78,160.025 		"/>
		<polygon fill="#FFFFFF" stroke="#000000" points="1176.39,258.349 1231.612,258.349 1259.222,210.524 1231.612,162.702 
			1176.39,162.702 1148.78,210.524 		"/>
		<polygon fill="#FFFFFF" stroke="#000000" points="1319.612,213.202 1264.39,213.202 1236.78,261.024 1264.39,308.849 
			1319.612,308.849 1347.222,261.024 		"/>
		<polygon fill="#FFFFFF" stroke="#000000" points="439.61,-95.151 467.222,-142.975 439.61,-190.797 384.39,-190.797 
			356.778,-142.975 384.39,-95.151 		"/>
		<polygon fill="#FFFFFF" stroke="#000000" points="472.39,-140.297 444.778,-92.475 472.39,-44.651 527.612,-44.651 
			555.222,-92.475 527.612,-140.297 		"/>
		<polygon fill="#FFFFFF" stroke="#000000" points="560.39,-89.797 532.78,-41.975 560.39,5.849 615.612,5.849 643.222,-41.975 
			615.612,-89.797 		"/>
		<polygon fill="#FFFFFF" stroke="#000000" points="648.39,-39.297 620.78,8.525 648.39,56.349 703.612,56.349 731.222,8.525 
			703.612,-39.297 		"/>
		<polygon fill="#FFFFFF" stroke="#000000" points="736.39,11.203 708.78,59.025 736.39,106.849 791.612,106.849 819.222,59.025 
			791.612,11.203 		"/>
		<polygon fill="#FFFFFF" stroke="#000000" points="824.39,61.703 796.78,109.525 824.39,157.349 879.612,157.349 907.222,109.525 
			879.612,61.703 		"/>
		<polygon fill="#FFFFFF" stroke="#000000" points="912.39,112.203 884.78,160.025 912.39,207.849 967.612,207.849 995.222,160.025 
			967.612,112.203 		"/>
		<polygon fill="#FFFFFF" stroke="#000000" points="1055.612,258.349 1083.222,210.524 1055.612,162.702 1000.39,162.702 
			972.78,210.524 1000.39,258.349 		"/>
		<polygon fill="#FFFFFF" stroke="#000000" points="1143.612,308.849 1171.222,261.024 1143.612,213.202 1088.39,213.202 
			1060.78,261.024 1088.39,308.849 		"/>
		<polygon fill="#FFFFFF" stroke="#000000" points="1176.39,263.702 1148.78,311.524 1176.39,359.349 1231.612,359.349 
			1259.222,311.524 1231.612,263.702 		"/>
		<polygon fill="#FFFFFF" stroke="#000000" points="351.61,-44.651 379.222,-92.475 351.61,-140.297 296.39,-140.297 
			268.778,-92.475 296.39,-44.651 		"/>
		<polygon fill="#FFFFFF" stroke="#000000" points="384.39,-89.797 356.778,-41.975 384.39,5.849 439.61,5.849 467.222,-41.975 
			439.61,-89.797 		"/>
		<polygon fill="#FFFFFF" stroke="#000000" points="472.39,-39.297 444.778,8.525 472.39,56.349 527.612,56.349 555.222,8.525 
			527.612,-39.297 		"/>
		<polygon fill="#FFFFFF" stroke="#000000" points="560.39,11.203 532.78,59.025 560.39,106.849 615.612,106.849 643.222,59.025 
			615.612,11.203 		"/>
		<polygon fill="#FFFFFF" stroke="#000000" points="648.39,61.703 620.78,109.525 648.39,157.349 703.612,157.349 731.222,109.525 
			703.612,61.703 		"/>
		<polygon fill="#FFFFFF" stroke="#000000" points="736.39,112.203 708.78,160.025 736.39,207.849 791.612,207.849 819.222,160.025 
			791.612,112.203 		"/>
		<polygon fill="#FFFFFF" stroke="#000000" points="879.612,258.349 907.222,210.524 879.612,162.702 824.39,162.702 
			796.78,210.524 824.39,258.349 		"/>
		<polygon fill="#FFFFFF" stroke="#000000" points="967.612,308.849 995.222,261.024 967.612,213.202 912.39,213.202 
			884.78,261.024 912.39,308.849 		"/>
		<polygon fill="#FFFFFF" stroke="#000000" points="1055.612,359.349 1083.222,311.524 1055.612,263.702 1000.39,263.702 
			972.78,311.524 1000.39,359.349 		"/>
		<polygon fill="#FFFFFF" stroke="#000000" points="1088.39,314.202 1060.78,362.024 1088.39,409.849 1143.612,409.849 
			1171.222,362.024 1143.612,314.202 		"/>
		<polygon fill="#FFFFFF" stroke="#000000" points="263.61,5.849 291.222,-41.975 263.61,-89.797 208.39,-89.797 180.778,-41.975 
			208.39,5.849 		"/>
		<polygon fill="#FFFFFF" stroke="#000000" points="296.39,-39.297 268.778,8.525 296.39,56.349 351.61,56.349 379.222,8.525 
			351.61,-39.297 		"/>
		<polygon fill="#FFFFFF" stroke="#000000" points="384.39,11.203 356.778,59.025 384.39,106.849 439.61,106.849 467.222,59.025 
			439.61,11.203 		"/>
		<polygon fill="#FFFFFF" stroke="#000000" points="472.39,61.703 444.778,109.525 472.39,157.349 527.612,157.349 555.222,109.525 
			527.612,61.703 		"/>
		<polygon fill="#FFFFFF" stroke="#000000" points="560.39,112.203 532.78,160.025 560.39,207.849 615.612,207.849 643.222,160.025 
			615.612,112.203 		"/>
		<polygon fill="#FFFFFF" stroke="#000000" points="703.612,258.349 731.222,210.524 703.612,162.702 648.39,162.702 
			620.78,210.524 648.39,258.349 		"/>
		<polygon fill="#FFFFFF" stroke="#000000" points="791.612,308.849 819.222,261.024 791.612,213.202 736.39,213.202 
			708.78,261.024 736.39,308.849 		"/>
		<polygon fill="#FFFFFF" stroke="#000000" points="879.612,359.349 907.222,311.524 879.612,263.702 824.39,263.702 
			796.78,311.524 824.39,359.349 		"/>
		<polygon fill="#FFFFFF" stroke="#000000" points="967.612,409.849 995.222,362.024 967.612,314.202 912.39,314.202 
			884.78,362.024 912.39,409.849 		"/>
		<polygon fill="#FFFFFF" stroke="#000000" points="1000.39,364.702 972.78,412.524 1000.39,460.349 1055.612,460.349 
			1083.222,412.524 1055.612,364.702 		"/>
		<polygon fill="#FFFFFF" stroke="#000000" points="175.61,56.349 203.222,8.525 175.61,-39.297 120.39,-39.297 92.778,8.525 
			120.39,56.349 		"/>
		<polygon fill="#FFFFFF" stroke="#000000" points="208.39,11.203 180.778,59.025 208.39,106.849 263.61,106.849 291.222,59.025 
			263.61,11.203 		"/>
		<polygon fill="#FFFFFF" stroke="#000000" points="296.39,61.703 268.778,109.525 296.39,157.349 351.61,157.349 379.222,109.525 
			351.61,61.703 		"/>
		<polygon fill="#FFFFFF" stroke="#000000" points="384.39,112.203 356.778,160.025 384.39,207.849 439.61,207.849 467.222,160.025 
			439.61,112.203 		"/>
		<polygon fill="#FFFFFF" stroke="#000000" points="527.612,258.349 555.222,210.524 527.612,162.702 472.39,162.702 
			444.778,210.524 472.39,258.349 		"/>
		<polygon fill="#FFFFFF" stroke="#000000" points="615.612,308.849 643.222,261.024 615.612,213.202 560.39,213.202 
			532.78,261.024 560.39,308.849 		"/>
		<polygon fill="#FFFFFF" stroke="#000000" points="703.612,359.349 731.222,311.524 703.612,263.702 648.39,263.702 
			620.78,311.524 648.39,359.349 		"/>
		<polygon fill="#FFFFFF" stroke="#000000" points="791.612,409.849 819.222,362.024 791.612,314.202 736.39,314.202 
			708.78,362.024 736.39,409.849 		"/>
		<polygon fill="#FFFFFF" stroke="#000000" points="879.612,460.349 907.222,412.524 879.612,364.702 824.39,364.702 
			796.78,412.524 824.39,460.349 		"/>
		<polygon fill="#FFFFFF" stroke="#000000" points="912.39,415.202 884.78,463.024 912.39,510.849 967.612,510.849 995.222,463.024 
			967.612,415.202 		"/>
		<polygon fill="#FFFFFF" stroke="#000000" points="87.61,106.849 115.222,59.025 87.61,11.203 32.389,11.203 4.779,59.025 
			32.389,106.849 		"/>
		<polygon fill="#FFFFFF" stroke="#000000" points="120.39,61.703 92.778,109.525 120.39,157.349 175.61,157.349 203.222,109.525 
			175.61,61.703 		"/>
		<polygon fill="#FFFFFF" stroke="#000000" points="208.39,112.203 180.778,160.025 208.39,207.849 263.61,207.849 291.222,160.025 
			263.61,112.203 		"/>
		<polygon fill="#FFFFFF" stroke="#000000" points="296.39,162.702 268.778,210.524 296.39,258.349 351.61,258.349 379.222,210.524 
			351.61,162.702 		"/>
		<polygon fill="#FFFFFF" stroke="#000000" points="384.39,213.202 356.778,261.024 384.39,308.849 439.61,308.849 467.222,261.024 
			439.61,213.202 		"/>
		<polygon fill="#FFFFFF" stroke="#000000" points="527.612,359.349 555.222,311.524 527.612,263.702 472.39,263.702 
			444.778,311.524 472.39,359.349 		"/>
		<polygon fill="#FFFFFF" stroke="#000000" points="615.612,409.849 643.222,362.024 615.612,314.202 560.39,314.202 
			532.78,362.024 560.39,409.849 		"/>
		<polygon fill="#FFFFFF" stroke="#000000" points="703.612,460.349 731.222,412.524 703.612,364.702 648.39,364.702 
			620.78,412.524 648.39,460.349 		"/>
		<polygon fill="#FFFFFF" stroke="#000000" points="791.612,510.849 819.222,463.024 791.612,415.202 736.39,415.202 
			708.78,463.024 736.39,510.849 		"/>
		<polygon fill="#FFFFFF" stroke="#000000" points="824.39,465.702 796.78,513.524 824.39,561.349 879.612,561.349 907.222,513.524 
			879.612,465.702 		"/>
		<polygon fill="#FFFFFF" stroke="#000000" points="-0.389,157.349 27.221,109.525 -0.389,61.703 -55.611,61.703 -83.221,109.525 
			-55.611,157.349 		"/>
		<polygon fill="#FFFFFF" stroke="#000000" points="32.389,112.203 4.779,160.025 32.389,207.849 87.61,207.849 115.222,160.025 
			87.61,112.203 		"/>
		<polygon fill="#FFFFFF" stroke="#000000" points="120.39,162.702 92.778,210.524 120.39,258.349 175.61,258.349 203.222,210.524 
			175.61,162.702 		"/>
		<polygon fill="#FFFFFF" stroke="#000000" points="208.39,213.202 180.778,261.024 208.39,308.849 263.61,308.849 291.222,261.024 
			263.61,213.202 		"/>
		<polygon fill="#FFFFFF" stroke="#000000" points="351.61,359.349 379.222,311.524 351.61,263.702 296.39,263.702 268.778,311.524 
			296.39,359.349 		"/>
		<polygon fill="#FFFFFF" stroke="#000000" points="439.61,409.849 467.222,362.024 439.61,314.202 384.39,314.202 356.778,362.024 
			384.39,409.849 		"/>
		<polygon fill="#FFFFFF" stroke="#000000" points="527.612,460.349 555.222,412.524 527.612,364.702 472.39,364.702 
			444.778,412.524 472.39,460.349 		"/>
		<polygon fill="#FFFFFF" stroke="#000000" points="615.612,510.849 643.222,463.024 615.612,415.202 560.39,415.202 
			532.78,463.024 560.39,510.849 		"/>
		<polygon fill="#FFFFFF" stroke="#000000" points="703.612,561.349 731.222,513.524 703.612,465.702 648.39,465.702 
			620.78,513.524 648.39,561.349 		"/>
		<polygon fill="#FFFFFF" stroke="#000000" points="736.39,516.202 708.78,564.024 736.39,611.849 791.612,611.849 819.222,564.024 
			791.612,516.202 		"/>
		<polygon fill="#FFFFFF" stroke="#000000" points="-88.389,207.849 -60.779,160.025 -88.389,112.203 -143.611,112.203 
			-171.221,160.025 -143.611,207.849 		"/>
		<polygon fill="#FFFFFF" stroke="#000000" points="-55.611,162.702 -83.221,210.524 -55.611,258.349 -0.389,258.349 
			27.221,210.524 -0.389,162.702 		"/>
		<polygon fill="#FFFFFF" stroke="#000000" points="32.389,213.202 4.779,261.024 32.389,308.849 87.61,308.849 115.222,261.024 
			87.61,213.202 		"/>
		<polygon fill="#FFFFFF" stroke="#000000" points="175.61,359.349 203.222,311.524 175.61,263.702 120.39,263.702 92.778,311.524 
			120.39,359.349 		"/>
		<polygon fill="#FFFFFF" stroke="#000000" points="263.61,409.849 291.222,362.024 263.61,314.202 208.39,314.202 180.778,362.024 
			208.39,409.849 		"/>
		<polygon fill="#FFFFFF" stroke="#000000" points="351.61,460.349 379.222,412.524 351.61,364.702 296.39,364.702 268.778,412.524 
			296.39,460.349 		"/>
		<polygon fill="#FFFFFF" stroke="#000000" points="439.61,510.849 467.222,463.024 439.61,415.202 384.39,415.202 356.778,463.024 
			384.39,510.849 		"/>
		<polygon fill="#FFFFFF" stroke="#000000" points="527.612,561.349 555.222,513.524 527.612,465.702 472.39,465.702 
			444.778,513.524 472.39,561.349 		"/>
		<polygon fill="#FFFFFF" stroke="#000000" points="615.612,611.849 643.222,564.024 615.612,516.202 560.39,516.202 
			532.78,564.024 560.39,611.849 		"/>
		<polygon fill="#FFFFFF" stroke="#000000" points="648.39,566.702 620.78,614.524 648.39,662.349 703.612,662.349 731.222,614.524 
			703.612,566.702 		"/>
		<polygon fill="#FFFFFF" stroke="#000000" points="-176.389,258.349 -148.779,210.524 -176.389,162.702 -231.611,162.702 
			-259.221,210.524 -231.611,258.349 		"/>
		<polygon fill="#FFFFFF" stroke="#000000" points="-143.611,213.202 -171.221,261.024 -143.611,308.849 -88.389,308.849 
			-60.779,261.024 -88.389,213.202 		"/>
		<polygon fill="#FFFFFF" stroke="#000000" points="-0.389,359.349 27.221,311.524 -0.389,263.702 -55.611,263.702 -83.221,311.524 
			-55.611,359.349 		"/>
		<polygon fill="#FFFFFF" stroke="#000000" points="87.61,409.849 115.222,362.024 87.61,314.202 32.389,314.202 4.779,362.024 
			32.389,409.849 		"/>
		<polygon fill="#FFFFFF" stroke="#000000" points="175.61,460.349 203.222,412.524 175.61,364.702 120.39,364.702 92.778,412.524 
			120.39,460.349 		"/>
		<polygon fill="#FFFFFF" stroke="#000000" points="263.61,510.849 291.222,463.024 263.61,415.202 208.39,415.202 180.778,463.024 
			208.39,510.849 		"/>
		<polygon fill="#FFFFFF" stroke="#000000" points="351.61,561.349 379.222,513.524 351.61,465.702 296.39,465.702 268.778,513.524 
			296.39,561.349 		"/>
		<polygon fill="#FFFFFF" stroke="#000000" points="439.61,611.849 467.222,564.024 439.61,516.202 384.39,516.202 356.778,564.024 
			384.39,611.849 		"/>
		<polygon fill="#FFFFFF" stroke="#000000" points="527.612,662.349 555.222,614.524 527.612,566.702 472.39,566.702 
			444.778,614.524 472.39,662.349 		"/>
		<polygon fill="#FFFFFF" stroke="#000000" points="560.39,617.202 532.78,665.024 560.39,712.849 615.612,712.849 643.222,665.024 
			615.612,617.202 		"/>
		<polygon fill="#FFFFFF" stroke="#000000" points="-264.389,213.202 -319.611,213.202 -347.221,261.024 -319.611,308.849 
			-264.389,308.849 -236.779,261.024 		"/>
		<polygon fill="#FFFFFF" stroke="#000000" points="-176.389,263.702 -231.611,263.702 -259.221,311.524 -231.611,359.349 
			-176.389,359.349 -148.779,311.524 		"/>
		<polygon fill="#FFFFFF" stroke="#000000" points="-88.389,314.202 -143.611,314.202 -171.221,362.024 -143.611,409.849 
			-88.389,409.849 -60.779,362.024 		"/>
		<polygon fill="#FFFFFF" stroke="#000000" points="-0.389,364.702 -55.611,364.702 -83.221,412.524 -55.611,460.349 
			-0.389,460.349 27.221,412.524 		"/>
		<polygon fill="#FFFFFF" stroke="#000000" points="87.61,415.202 32.389,415.202 4.779,463.024 32.389,510.849 87.61,510.849 
			115.222,463.024 		"/>
		<polygon fill="#FFFFFF" stroke="#000000" points="175.61,465.702 120.39,465.702 92.778,513.524 120.39,561.349 175.61,561.349 
			203.222,513.524 		"/>
		<polygon fill="#FFFFFF" stroke="#000000" points="263.61,516.202 208.39,516.202 180.778,564.024 208.39,611.849 263.61,611.849 
			291.222,564.024 		"/>
		<polygon fill="#FFFFFF" stroke="#000000" points="351.61,566.702 296.39,566.702 268.778,614.524 296.39,662.349 351.61,662.349 
			379.222,614.524 		"/>
		<polygon fill="#FFFFFF" stroke="#000000" points="439.61,617.202 384.39,617.202 356.778,665.024 384.39,712.849 439.61,712.849 
			467.222,665.024 		"/>
		<polygon fill="#FFFFFF" stroke="#000000" points="472.39,667.702 444.778,715.524 472.39,763.349 527.612,763.349 
			555.222,715.524 527.612,667.702 		"/>
	</g>
</g>
<g id="圖層_3" display="none">
	<polygon display="inline" fill="#FFFFFF" stroke="#000000" points="62.266,63.434 43.955,31.717 62.266,0 98.89,0 117.202,31.717 
		98.89,63.434 	"/>
	<polygon display="inline" fill="#FFFFFF" stroke="#000000" points="62.266,137.934 43.955,106.217 62.266,74.5 98.89,74.5 
		117.202,106.217 98.89,137.934 	"/>
	<polygon display="inline" fill="#FFFFFF" stroke="#000000" points="62.266,212.434 43.955,180.717 62.266,149 98.89,149 
		117.202,180.717 98.89,212.434 	"/>
	<polygon display="inline" fill="#FFFFFF" stroke="#000000" points="62.266,286.934 43.955,255.217 62.266,223.5 98.89,223.5 
		117.202,255.217 98.89,286.934 	"/>
	<polygon display="inline" fill="#FFFFFF" stroke="#000000" points="62.266,361.434 43.955,329.717 62.266,298 98.89,298 
		117.202,329.717 98.89,361.434 	"/>
	<polygon display="inline" fill="#FFFFFF" stroke="#000000" points="62.266,435.934 43.955,404.217 62.266,372.5 98.89,372.5 
		117.202,404.217 98.89,435.934 	"/>
	<polygon display="inline" fill="#FFFFFF" stroke="#000000" points="62.266,510.434 43.955,478.717 62.266,447 98.89,447 
		117.202,478.717 98.89,510.434 	"/>
	<polygon display="inline" fill="#FFFFFF" stroke="#000000" points="62.266,584.934 43.955,553.217 62.266,521.5 98.89,521.5 
		117.202,553.217 98.89,584.934 	"/>
	<polygon display="inline" fill="#FFFFFF" stroke="#000000" points="62.266,659.434 43.955,627.717 62.266,596 98.89,596 
		117.202,627.717 98.89,659.434 	"/>
	<polygon display="inline" fill="#FFFFFF" stroke="#000000" points="62.266,733.934 43.955,702.217 62.266,670.5 98.89,670.5 
		117.202,702.217 98.89,733.934 	"/>
	<polygon display="inline" fill="#FFFFFF" stroke="#000000" points="62.266,137.934 43.955,106.217 62.266,74.5 98.89,74.5 
		117.202,106.217 98.89,137.934 	"/>
	<polygon display="inline" fill="#FFFFFF" stroke="#000000" points="125.263,100.683 106.951,68.966 125.263,37.25 161.887,37.25 
		180.198,68.966 161.887,100.683 	"/>
	<polygon display="inline" fill="#FFFFFF" stroke="#000000" points="125.263,175.183 106.951,143.466 125.263,111.75 
		161.887,111.75 180.198,143.466 161.887,175.183 	"/>
	<polygon display="inline" fill="#FFFFFF" stroke="#000000" points="125.263,249.683 106.951,217.966 125.263,186.25 
		161.887,186.25 180.198,217.966 161.887,249.683 	"/>
	<polygon display="inline" fill="#FFFFFF" stroke="#000000" points="125.263,324.183 106.951,292.466 125.263,260.749 
		161.887,260.749 180.198,292.466 161.887,324.183 	"/>
	<polygon display="inline" fill="#FFFFFF" stroke="#000000" points="125.263,398.683 106.951,366.966 125.263,335.249 
		161.887,335.249 180.198,366.966 161.887,398.683 	"/>
	<polygon display="inline" fill="#FFFFFF" stroke="#000000" points="125.263,473.183 106.951,441.466 125.263,409.749 
		161.887,409.749 180.198,441.466 161.887,473.183 	"/>
	<polygon display="inline" fill="#FFFFFF" stroke="#000000" points="125.263,547.683 106.951,515.966 125.263,484.249 
		161.887,484.249 180.198,515.966 161.887,547.683 	"/>
	<polygon display="inline" fill="#FFFFFF" stroke="#000000" points="125.263,622.183 106.951,590.466 125.263,558.749 
		161.887,558.749 180.198,590.466 161.887,622.183 	"/>
	<polygon display="inline" fill="#FFFFFF" stroke="#000000" points="125.263,696.683 106.951,664.966 125.263,633.249 
		161.887,633.249 180.198,664.966 161.887,696.683 	"/>
	<polygon display="inline" fill="#FFFFFF" stroke="#000000" points="125.263,771.183 106.951,739.466 125.263,707.749 
		161.887,707.749 180.198,739.466 161.887,771.183 	"/>
	<polygon display="inline" fill="#FFFFFF" stroke="#000000" points="125.263,175.183 106.951,143.466 125.263,111.75 
		161.887,111.75 180.198,143.466 161.887,175.183 	"/>
	<polygon display="inline" fill="#FFFFFF" stroke="#000000" points="125.263,100.684 106.951,68.967 125.263,37.25 161.887,37.25 
		180.198,68.967 161.887,100.684 	"/>
	<polygon display="inline" fill="#FFFFFF" stroke="#000000" points="125.263,175.184 106.951,143.467 125.263,111.75 
		161.887,111.75 180.198,143.467 161.887,175.184 	"/>
	<polygon display="inline" fill="#FFFFFF" stroke="#000000" points="125.263,249.683 106.951,217.967 125.263,186.25 
		161.887,186.25 180.198,217.967 161.887,249.683 	"/>
	<polygon display="inline" fill="#FFFFFF" stroke="#000000" points="125.263,324.183 106.951,292.466 125.263,260.749 
		161.887,260.749 180.198,292.466 161.887,324.183 	"/>
	<polygon display="inline" fill="#FFFFFF" stroke="#000000" points="125.263,398.683 106.951,366.966 125.263,335.249 
		161.887,335.249 180.198,366.966 161.887,398.683 	"/>
	<polygon display="inline" fill="#FFFFFF" stroke="#000000" points="125.263,473.183 106.951,441.466 125.263,409.749 
		161.887,409.749 180.198,441.466 161.887,473.183 	"/>
	<polygon display="inline" fill="#FFFFFF" stroke="#000000" points="125.263,547.683 106.951,515.966 125.263,484.249 
		161.887,484.249 180.198,515.966 161.887,547.683 	"/>
	<polygon display="inline" fill="#FFFFFF" stroke="#000000" points="125.263,622.183 106.951,590.466 125.263,558.749 
		161.887,558.749 180.198,590.466 161.887,622.183 	"/>
	<polygon display="inline" fill="#FFFFFF" stroke="#000000" points="125.263,696.683 106.951,664.966 125.263,633.249 
		161.887,633.249 180.198,664.966 161.887,696.683 	"/>
	<polygon display="inline" fill="#FFFFFF" stroke="#000000" points="125.263,771.183 106.951,739.466 125.263,707.749 
		161.887,707.749 180.198,739.466 161.887,771.183 	"/>
	<polygon display="inline" fill="#FFFFFF" stroke="#000000" points="125.263,175.184 106.951,143.467 125.263,111.75 
		161.887,111.75 180.198,143.467 161.887,175.184 	"/>
	<polygon display="inline" fill="#FFFFFF" stroke="#000000" points="187.6,63.434 169.288,31.717 187.6,0 224.224,0 242.535,31.717 
		224.224,63.434 	"/>
	<polygon display="inline" fill="#FFFFFF" stroke="#000000" points="187.6,137.934 169.288,106.217 187.6,74.5 224.224,74.5 
		242.535,106.217 224.224,137.934 	"/>
	<polygon display="inline" fill="#FFFFFF" stroke="#000000" points="187.6,212.434 169.288,180.717 187.6,149 224.224,149 
		242.535,180.717 224.224,212.434 	"/>
	<polygon display="inline" fill="#FFFFFF" stroke="#000000" points="187.6,286.934 169.288,255.217 187.6,223.5 224.224,223.5 
		242.535,255.217 224.224,286.934 	"/>
	<polygon display="inline" fill="#FFFFFF" stroke="#000000" points="187.6,361.434 169.288,329.717 187.6,298 224.224,298 
		242.535,329.717 224.224,361.434 	"/>
	<polygon display="inline" fill="#FFFFFF" stroke="#000000" points="187.6,435.934 169.288,404.217 187.6,372.5 224.224,372.5 
		242.535,404.217 224.224,435.934 	"/>
	<polygon display="inline" fill="#FFFFFF" stroke="#000000" points="187.6,510.434 169.288,478.717 187.6,447 224.224,447 
		242.535,478.717 224.224,510.434 	"/>
	<polygon display="inline" fill="#FFFFFF" stroke="#000000" points="187.6,584.934 169.288,553.217 187.6,521.5 224.224,521.5 
		242.535,553.217 224.224,584.934 	"/>
	<polygon display="inline" fill="#FFFFFF" stroke="#000000" points="187.6,659.434 169.288,627.717 187.6,596 224.224,596 
		242.535,627.717 224.224,659.434 	"/>
	<polygon display="inline" fill="#FFFFFF" stroke="#000000" points="187.6,733.934 169.288,702.217 187.6,670.5 224.224,670.5 
		242.535,702.217 224.224,733.934 	"/>
	<polygon display="inline" fill="#FFFFFF" stroke="#000000" points="187.6,137.934 169.288,106.217 187.6,74.5 224.224,74.5 
		242.535,106.217 224.224,137.934 	"/>
	<polygon display="inline" fill="#FFFFFF" stroke="#000000" points="250.596,100.683 232.285,68.966 250.596,37.25 287.22,37.25 
		305.532,68.966 287.22,100.683 	"/>
	<polygon display="inline" fill="#FFFFFF" stroke="#000000" points="250.596,175.183 232.285,143.466 250.596,111.75 287.22,111.75 
		305.532,143.466 287.22,175.183 	"/>
	<polygon display="inline" fill="#FFFFFF" stroke="#000000" points="250.596,249.683 232.285,217.966 250.596,186.25 287.22,186.25 
		305.532,217.966 287.22,249.683 	"/>
	<polygon display="inline" fill="#FFFFFF" stroke="#000000" points="250.596,324.183 232.285,292.466 250.596,260.749 
		287.22,260.749 305.532,292.466 287.22,324.183 	"/>
	<polygon display="inline" fill="#FFFFFF" stroke="#000000" points="250.596,398.683 232.285,366.966 250.596,335.249 
		287.22,335.249 305.532,366.966 287.22,398.683 	"/>
	<polygon display="inline" fill="#FFFFFF" stroke="#000000" points="250.596,473.183 232.285,441.466 250.596,409.749 
		287.22,409.749 305.532,441.466 287.22,473.183 	"/>
	<polygon display="inline" fill="#FFFFFF" stroke="#000000" points="250.596,547.683 232.285,515.966 250.596,484.249 
		287.22,484.249 305.532,515.966 287.22,547.683 	"/>
	<polygon display="inline" fill="#FFFFFF" stroke="#000000" points="250.596,622.183 232.285,590.466 250.596,558.749 
		287.22,558.749 305.532,590.466 287.22,622.183 	"/>
	<polygon display="inline" fill="#FFFFFF" stroke="#000000" points="250.596,696.683 232.285,664.966 250.596,633.249 
		287.22,633.249 305.532,664.966 287.22,696.683 	"/>
	<polygon display="inline" fill="#FFFFFF" stroke="#000000" points="250.596,771.183 232.285,739.466 250.596,707.749 
		287.22,707.749 305.532,739.466 287.22,771.183 	"/>
	<polygon display="inline" fill="#FFFFFF" stroke="#000000" points="250.596,175.183 232.285,143.466 250.596,111.75 287.22,111.75 
		305.532,143.466 287.22,175.183 	"/>
	<polygon display="inline" fill="#FFFFFF" stroke="#000000" points="250.596,100.684 232.285,68.967 250.596,37.25 287.22,37.25 
		305.532,68.967 287.22,100.684 	"/>
	<polygon display="inline" fill="#FFFFFF" stroke="#000000" points="250.596,175.184 232.285,143.467 250.596,111.75 287.22,111.75 
		305.532,143.467 287.22,175.184 	"/>
	<polygon display="inline" fill="#FFFFFF" stroke="#000000" points="250.596,249.683 232.285,217.967 250.596,186.25 287.22,186.25 
		305.532,217.967 287.22,249.683 	"/>
	<polygon display="inline" fill="#FFFFFF" stroke="#000000" points="250.596,324.183 232.285,292.466 250.596,260.749 
		287.22,260.749 305.532,292.466 287.22,324.183 	"/>
	<polygon display="inline" fill="#FFFFFF" stroke="#000000" points="250.596,398.683 232.285,366.966 250.596,335.249 
		287.22,335.249 305.532,366.966 287.22,398.683 	"/>
	<polygon display="inline" fill="#FFFFFF" stroke="#000000" points="250.596,473.183 232.285,441.466 250.596,409.749 
		287.22,409.749 305.532,441.466 287.22,473.183 	"/>
	<polygon display="inline" fill="#FFFFFF" stroke="#000000" points="250.596,547.683 232.285,515.966 250.596,484.249 
		287.22,484.249 305.532,515.966 287.22,547.683 	"/>
	<polygon display="inline" fill="#FFFFFF" stroke="#000000" points="250.596,622.183 232.285,590.466 250.596,558.749 
		287.22,558.749 305.532,590.466 287.22,622.183 	"/>
	<polygon display="inline" fill="#FFFFFF" stroke="#000000" points="250.596,696.683 232.285,664.966 250.596,633.249 
		287.22,633.249 305.532,664.966 287.22,696.683 	"/>
	<polygon display="inline" fill="#FFFFFF" stroke="#000000" points="250.596,771.183 232.285,739.466 250.596,707.749 
		287.22,707.749 305.532,739.466 287.22,771.183 	"/>
	<polygon display="inline" fill="#FFFFFF" stroke="#000000" points="250.596,175.184 232.285,143.467 250.596,111.75 287.22,111.75 
		305.532,143.467 287.22,175.184 	"/>
	<polygon display="inline" fill="#FFFFFF" stroke="#000000" points="312.933,63.434 294.622,31.717 312.933,0 349.557,0 
		367.869,31.717 349.557,63.434 	"/>
	<polygon display="inline" fill="#FFFFFF" stroke="#000000" points="312.933,137.934 294.622,106.217 312.933,74.5 349.557,74.5 
		367.869,106.217 349.557,137.934 	"/>
	<polygon display="inline" fill="#FFFFFF" stroke="#000000" points="312.933,212.434 294.622,180.717 312.933,149 349.557,149 
		367.869,180.717 349.557,212.434 	"/>
	<polygon display="inline" fill="#FFFFFF" stroke="#000000" points="312.933,286.934 294.622,255.217 312.933,223.5 349.557,223.5 
		367.869,255.217 349.557,286.934 	"/>
	<polygon display="inline" fill="#FFFFFF" stroke="#000000" points="312.933,361.434 294.622,329.717 312.933,298 349.557,298 
		367.869,329.717 349.557,361.434 	"/>
	<polygon display="inline" fill="#FFFFFF" stroke="#000000" points="312.933,435.934 294.622,404.217 312.933,372.5 349.557,372.5 
		367.869,404.217 349.557,435.934 	"/>
	<polygon display="inline" fill="#FFFFFF" stroke="#000000" points="312.933,510.434 294.622,478.717 312.933,447 349.557,447 
		367.869,478.717 349.557,510.434 	"/>
	<polygon display="inline" fill="#FFFFFF" stroke="#000000" points="312.933,584.934 294.622,553.217 312.933,521.5 349.557,521.5 
		367.869,553.217 349.557,584.934 	"/>
	<polygon display="inline" fill="#FFFFFF" stroke="#000000" points="312.933,659.434 294.622,627.717 312.933,596 349.557,596 
		367.869,627.717 349.557,659.434 	"/>
	<polygon display="inline" fill="#FFFFFF" stroke="#000000" points="312.933,733.934 294.622,702.217 312.933,670.5 349.557,670.5 
		367.869,702.217 349.557,733.934 	"/>
	<polygon display="inline" fill="#FFFFFF" stroke="#000000" points="312.933,137.934 294.622,106.217 312.933,74.5 349.557,74.5 
		367.869,106.217 349.557,137.934 	"/>
	<polygon display="inline" fill="#FFFFFF" stroke="#000000" points="375.93,100.683 357.618,68.966 375.93,37.25 412.554,37.25 
		430.865,68.966 412.554,100.683 	"/>
	<polygon display="inline" fill="#FFFFFF" stroke="#000000" points="375.93,175.183 357.618,143.466 375.93,111.75 412.554,111.75 
		430.865,143.466 412.554,175.183 	"/>
	<polygon display="inline" fill="#FFFFFF" stroke="#000000" points="375.93,249.683 357.618,217.966 375.93,186.25 412.554,186.25 
		430.865,217.966 412.554,249.683 	"/>
	<polygon display="inline" fill="#FFFFFF" stroke="#000000" points="375.93,324.183 357.618,292.466 375.93,260.749 
		412.554,260.749 430.865,292.466 412.554,324.183 	"/>
	<polygon display="inline" fill="#FFFFFF" stroke="#000000" points="375.93,398.683 357.618,366.966 375.93,335.249 
		412.554,335.249 430.865,366.966 412.554,398.683 	"/>
	<polygon display="inline" fill="#FFFFFF" stroke="#000000" points="375.93,473.183 357.618,441.466 375.93,409.749 
		412.554,409.749 430.865,441.466 412.554,473.183 	"/>
	<polygon display="inline" fill="#FFFFFF" stroke="#000000" points="375.93,547.683 357.618,515.966 375.93,484.249 
		412.554,484.249 430.865,515.966 412.554,547.683 	"/>
	<polygon display="inline" fill="#FFFFFF" stroke="#000000" points="375.93,622.183 357.618,590.466 375.93,558.749 
		412.554,558.749 430.865,590.466 412.554,622.183 	"/>
	<polygon display="inline" fill="#FFFFFF" stroke="#000000" points="375.93,696.683 357.618,664.966 375.93,633.249 
		412.554,633.249 430.865,664.966 412.554,696.683 	"/>
	<polygon display="inline" fill="#FFFFFF" stroke="#000000" points="375.93,771.183 357.618,739.466 375.93,707.749 
		412.554,707.749 430.865,739.466 412.554,771.183 	"/>
	<polygon display="inline" fill="#FFFFFF" stroke="#000000" points="375.93,175.183 357.618,143.466 375.93,111.75 412.554,111.75 
		430.865,143.466 412.554,175.183 	"/>
	<polygon display="inline" fill="#FFFFFF" stroke="#000000" points="375.93,100.684 357.618,68.967 375.93,37.25 412.554,37.25 
		430.865,68.967 412.554,100.684 	"/>
	<polygon display="inline" fill="#FFFFFF" stroke="#000000" points="375.93,175.184 357.618,143.467 375.93,111.75 412.554,111.75 
		430.865,143.467 412.554,175.184 	"/>
	<polygon display="inline" fill="#FFFFFF" stroke="#000000" points="375.93,249.683 357.618,217.967 375.93,186.25 412.554,186.25 
		430.865,217.967 412.554,249.683 	"/>
	<polygon display="inline" fill="#FFFFFF" stroke="#000000" points="375.93,324.183 357.618,292.466 375.93,260.749 
		412.554,260.749 430.865,292.466 412.554,324.183 	"/>
	<polygon display="inline" fill="#FFFFFF" stroke="#000000" points="375.93,398.683 357.618,366.966 375.93,335.249 
		412.554,335.249 430.865,366.966 412.554,398.683 	"/>
	<polygon display="inline" fill="#FFFFFF" stroke="#000000" points="375.93,473.183 357.618,441.466 375.93,409.749 
		412.554,409.749 430.865,441.466 412.554,473.183 	"/>
	<polygon display="inline" fill="#FFFFFF" stroke="#000000" points="375.93,547.683 357.618,515.966 375.93,484.249 
		412.554,484.249 430.865,515.966 412.554,547.683 	"/>
	<polygon display="inline" fill="#FFFFFF" stroke="#000000" points="375.93,622.183 357.618,590.466 375.93,558.749 
		412.554,558.749 430.865,590.466 412.554,622.183 	"/>
	<polygon display="inline" fill="#FFFFFF" stroke="#000000" points="375.93,696.683 357.618,664.966 375.93,633.249 
		412.554,633.249 430.865,664.966 412.554,696.683 	"/>
	<polygon display="inline" fill="#FFFFFF" stroke="#000000" points="375.93,771.183 357.618,739.466 375.93,707.749 
		412.554,707.749 430.865,739.466 412.554,771.183 	"/>
	<polygon display="inline" fill="#FFFFFF" stroke="#000000" points="375.93,175.184 357.618,143.467 375.93,111.75 412.554,111.75 
		430.865,143.467 412.554,175.184 	"/>
	<polygon display="inline" fill="#FFFFFF" stroke="#000000" points="438.267,63.434 419.955,31.717 438.267,0 474.891,0 
		493.202,31.717 474.891,63.434 	"/>
	<polygon display="inline" fill="#FFFFFF" stroke="#000000" points="438.267,137.934 419.955,106.217 438.267,74.5 474.891,74.5 
		493.202,106.217 474.891,137.934 	"/>
	<polygon display="inline" fill="#FFFFFF" stroke="#000000" points="438.267,212.434 419.955,180.717 438.267,149 474.891,149 
		493.202,180.717 474.891,212.434 	"/>
	<polygon display="inline" fill="#FFFFFF" stroke="#000000" points="438.267,286.934 419.955,255.217 438.267,223.5 474.891,223.5 
		493.202,255.217 474.891,286.934 	"/>
	<polygon display="inline" fill="#FFFFFF" stroke="#000000" points="438.267,361.434 419.955,329.717 438.267,298 474.891,298 
		493.202,329.717 474.891,361.434 	"/>
	<polygon display="inline" fill="#FFFFFF" stroke="#000000" points="438.267,435.934 419.955,404.217 438.267,372.5 474.891,372.5 
		493.202,404.217 474.891,435.934 	"/>
	<polygon display="inline" fill="#FFFFFF" stroke="#000000" points="438.267,510.434 419.955,478.717 438.267,447 474.891,447 
		493.202,478.717 474.891,510.434 	"/>
	<polygon display="inline" fill="#FFFFFF" stroke="#000000" points="438.267,584.934 419.955,553.217 438.267,521.5 474.891,521.5 
		493.202,553.217 474.891,584.934 	"/>
	<polygon display="inline" fill="#FFFFFF" stroke="#000000" points="438.267,659.434 419.955,627.717 438.267,596 474.891,596 
		493.202,627.717 474.891,659.434 	"/>
	<polygon display="inline" fill="#FFFFFF" stroke="#000000" points="438.267,733.934 419.955,702.217 438.267,670.5 474.891,670.5 
		493.202,702.217 474.891,733.934 	"/>
	<polygon display="inline" fill="#FFFFFF" stroke="#000000" points="438.267,137.934 419.955,106.217 438.267,74.5 474.891,74.5 
		493.202,106.217 474.891,137.934 	"/>
	<polygon display="inline" fill="#FFFFFF" stroke="#000000" points="501.263,100.683 482.952,68.966 501.263,37.25 537.888,37.25 
		556.198,68.966 537.888,100.683 	"/>
	<polygon display="inline" fill="#FFFFFF" stroke="#000000" points="501.263,175.183 482.952,143.466 501.263,111.75 
		537.888,111.75 556.198,143.466 537.888,175.183 	"/>
	<polygon display="inline" fill="#FFFFFF" stroke="#000000" points="501.263,249.683 482.952,217.966 501.263,186.25 
		537.888,186.25 556.198,217.966 537.888,249.683 	"/>
	<polygon display="inline" fill="#FFFFFF" stroke="#000000" points="501.263,324.183 482.952,292.466 501.263,260.749 
		537.888,260.749 556.198,292.466 537.888,324.183 	"/>
	<polygon display="inline" fill="#FFFFFF" stroke="#000000" points="501.263,398.683 482.952,366.966 501.263,335.249 
		537.888,335.249 556.198,366.966 537.888,398.683 	"/>
	<polygon display="inline" fill="#FFFFFF" stroke="#000000" points="501.263,473.183 482.952,441.466 501.263,409.749 
		537.888,409.749 556.198,441.466 537.888,473.183 	"/>
	<polygon display="inline" fill="#FFFFFF" stroke="#000000" points="501.263,547.683 482.952,515.966 501.263,484.249 
		537.888,484.249 556.198,515.966 537.888,547.683 	"/>
	<polygon display="inline" fill="#FFFFFF" stroke="#000000" points="501.263,622.183 482.952,590.466 501.263,558.749 
		537.888,558.749 556.198,590.466 537.888,622.183 	"/>
	<polygon display="inline" fill="#FFFFFF" stroke="#000000" points="501.263,696.683 482.952,664.966 501.263,633.249 
		537.888,633.249 556.198,664.966 537.888,696.683 	"/>
	<polygon display="inline" fill="#FFFFFF" stroke="#000000" points="501.263,771.183 482.952,739.466 501.263,707.749 
		537.888,707.749 556.198,739.466 537.888,771.183 	"/>
	<polygon display="inline" fill="#FFFFFF" stroke="#000000" points="501.263,175.183 482.952,143.466 501.263,111.75 
		537.888,111.75 556.198,143.466 537.888,175.183 	"/>
	<polygon display="inline" fill="#FFFFFF" stroke="#000000" points="501.263,100.684 482.952,68.967 501.263,37.25 537.888,37.25 
		556.198,68.967 537.888,100.684 	"/>
	<polygon display="inline" fill="#FFFFFF" stroke="#000000" points="501.263,175.184 482.952,143.467 501.263,111.75 
		537.888,111.75 556.198,143.467 537.888,175.184 	"/>
	<polygon display="inline" fill="#FFFFFF" stroke="#000000" points="501.263,249.683 482.952,217.967 501.263,186.25 
		537.888,186.25 556.198,217.967 537.888,249.683 	"/>
	<polygon display="inline" fill="#FFFFFF" stroke="#000000" points="501.263,324.183 482.952,292.466 501.263,260.749 
		537.888,260.749 556.198,292.466 537.888,324.183 	"/>
	<polygon display="inline" fill="#FFFFFF" stroke="#000000" points="501.263,398.683 482.952,366.966 501.263,335.249 
		537.888,335.249 556.198,366.966 537.888,398.683 	"/>
	<polygon display="inline" fill="#FFFFFF" stroke="#000000" points="501.263,473.183 482.952,441.466 501.263,409.749 
		537.888,409.749 556.198,441.466 537.888,473.183 	"/>
	<polygon display="inline" fill="#FFFFFF" stroke="#000000" points="501.263,547.683 482.952,515.966 501.263,484.249 
		537.888,484.249 556.198,515.966 537.888,547.683 	"/>
	<polygon display="inline" fill="#FFFFFF" stroke="#000000" points="501.263,622.183 482.952,590.466 501.263,558.749 
		537.888,558.749 556.198,590.466 537.888,622.183 	"/>
	<polygon display="inline" fill="#FFFFFF" stroke="#000000" points="501.263,696.683 482.952,664.966 501.263,633.249 
		537.888,633.249 556.198,664.966 537.888,696.683 	"/>
	<polygon display="inline" fill="#FFFFFF" stroke="#000000" points="501.263,771.183 482.952,739.466 501.263,707.749 
		537.888,707.749 556.198,739.466 537.888,771.183 	"/>
	<polygon display="inline" fill="#FFFFFF" stroke="#000000" points="501.263,175.184 482.952,143.467 501.263,111.75 
		537.888,111.75 556.198,143.467 537.888,175.184 	"/>
	<polygon display="inline" fill="#FFFFFF" stroke="#000000" points="563.601,63.434 545.288,31.717 563.601,0 600.224,0 
		618.536,31.717 600.224,63.434 	"/>
	<polygon display="inline" fill="#FFFFFF" stroke="#000000" points="563.601,137.934 545.288,106.217 563.601,74.5 600.224,74.5 
		618.536,106.217 600.224,137.934 	"/>
	<polygon display="inline" fill="#FFFFFF" stroke="#000000" points="563.601,212.434 545.288,180.717 563.601,149 600.224,149 
		618.536,180.717 600.224,212.434 	"/>
	<polygon display="inline" fill="#FFFFFF" stroke="#000000" points="563.601,286.934 545.288,255.217 563.601,223.5 600.224,223.5 
		618.536,255.217 600.224,286.934 	"/>
	<polygon display="inline" fill="#FFFFFF" stroke="#000000" points="563.601,361.434 545.288,329.717 563.601,298 600.224,298 
		618.536,329.717 600.224,361.434 	"/>
	<polygon display="inline" fill="#FFFFFF" stroke="#000000" points="563.601,435.934 545.288,404.217 563.601,372.5 600.224,372.5 
		618.536,404.217 600.224,435.934 	"/>
	<polygon display="inline" fill="#FFFFFF" stroke="#000000" points="563.601,510.434 545.288,478.717 563.601,447 600.224,447 
		618.536,478.717 600.224,510.434 	"/>
	<polygon display="inline" fill="#FFFFFF" stroke="#000000" points="563.601,584.934 545.288,553.217 563.601,521.5 600.224,521.5 
		618.536,553.217 600.224,584.934 	"/>
	<polygon display="inline" fill="#FFFFFF" stroke="#000000" points="563.601,659.434 545.288,627.717 563.601,596 600.224,596 
		618.536,627.717 600.224,659.434 	"/>
	<polygon display="inline" fill="#FFFFFF" stroke="#000000" points="563.601,733.934 545.288,702.217 563.601,670.5 600.224,670.5 
		618.536,702.217 600.224,733.934 	"/>
	<polygon display="inline" fill="#FFFFFF" stroke="#000000" points="563.601,137.934 545.288,106.217 563.601,74.5 600.224,74.5 
		618.536,106.217 600.224,137.934 	"/>
	<polygon display="inline" fill="#FFFFFF" stroke="#000000" points="626.597,100.683 608.286,68.966 626.597,37.25 663.222,37.25 
		681.532,68.966 663.222,100.683 	"/>
	<polygon display="inline" fill="#FFFFFF" stroke="#000000" points="626.597,175.183 608.286,143.466 626.597,111.75 
		663.222,111.75 681.532,143.466 663.222,175.183 	"/>
	<polygon display="inline" fill="#FFFFFF" stroke="#000000" points="626.597,249.683 608.286,217.966 626.597,186.25 
		663.222,186.25 681.532,217.966 663.222,249.683 	"/>
	<polygon display="inline" fill="#FFFFFF" stroke="#000000" points="626.597,324.183 608.286,292.466 626.597,260.749 
		663.222,260.749 681.532,292.466 663.222,324.183 	"/>
	<polygon display="inline" fill="#FFFFFF" stroke="#000000" points="626.597,398.683 608.286,366.966 626.597,335.249 
		663.222,335.249 681.532,366.966 663.222,398.683 	"/>
	<polygon display="inline" fill="#FFFFFF" stroke="#000000" points="626.597,473.183 608.286,441.466 626.597,409.749 
		663.222,409.749 681.532,441.466 663.222,473.183 	"/>
	<polygon display="inline" fill="#FFFFFF" stroke="#000000" points="626.597,547.683 608.286,515.966 626.597,484.249 
		663.222,484.249 681.532,515.966 663.222,547.683 	"/>
	<polygon display="inline" fill="#FFFFFF" stroke="#000000" points="626.597,622.183 608.286,590.466 626.597,558.749 
		663.222,558.749 681.532,590.466 663.222,622.183 	"/>
	<polygon display="inline" fill="#FFFFFF" stroke="#000000" points="626.597,696.683 608.286,664.966 626.597,633.249 
		663.222,633.249 681.532,664.966 663.222,696.683 	"/>
	<polygon display="inline" fill="#FFFFFF" stroke="#000000" points="626.597,771.183 608.286,739.466 626.597,707.749 
		663.222,707.749 681.532,739.466 663.222,771.183 	"/>
	<polygon display="inline" fill="#FFFFFF" stroke="#000000" points="626.597,175.183 608.286,143.466 626.597,111.75 
		663.222,111.75 681.532,143.466 663.222,175.183 	"/>
	<polygon display="inline" fill="#FFFFFF" stroke="#000000" points="626.597,100.684 608.286,68.967 626.597,37.25 663.222,37.25 
		681.532,68.967 663.222,100.684 	"/>
	<polygon display="inline" fill="#FFFFFF" stroke="#000000" points="626.597,175.184 608.286,143.467 626.597,111.75 
		663.222,111.75 681.532,143.467 663.222,175.184 	"/>
	<polygon display="inline" fill="#FFFFFF" stroke="#000000" points="626.597,249.683 608.286,217.967 626.597,186.25 
		663.222,186.25 681.532,217.967 663.222,249.683 	"/>
	<polygon display="inline" fill="#FFFFFF" stroke="#000000" points="626.597,324.183 608.286,292.466 626.597,260.749 
		663.222,260.749 681.532,292.466 663.222,324.183 	"/>
	<polygon display="inline" fill="#FFFFFF" stroke="#000000" points="626.597,398.683 608.286,366.966 626.597,335.249 
		663.222,335.249 681.532,366.966 663.222,398.683 	"/>
	<polygon display="inline" fill="#FFFFFF" stroke="#000000" points="626.597,473.183 608.286,441.466 626.597,409.749 
		663.222,409.749 681.532,441.466 663.222,473.183 	"/>
	<polygon display="inline" fill="#FFFFFF" stroke="#000000" points="626.597,547.683 608.286,515.966 626.597,484.249 
		663.222,484.249 681.532,515.966 663.222,547.683 	"/>
	<polygon display="inline" fill="#FFFFFF" stroke="#000000" points="626.597,622.183 608.286,590.466 626.597,558.749 
		663.222,558.749 681.532,590.466 663.222,622.183 	"/>
	<polygon display="inline" fill="#FFFFFF" stroke="#000000" points="626.597,696.683 608.286,664.966 626.597,633.249 
		663.222,633.249 681.532,664.966 663.222,696.683 	"/>
	<polygon display="inline" fill="#FFFFFF" stroke="#000000" points="626.597,771.183 608.286,739.466 626.597,707.749 
		663.222,707.749 681.532,739.466 663.222,771.183 	"/>
	<polygon display="inline" fill="#FFFFFF" stroke="#000000" points="626.597,175.184 608.286,143.467 626.597,111.75 
		663.222,111.75 681.532,143.467 663.222,175.184 	"/>
	<polygon display="inline" fill="#FFFFFF" stroke="#000000" points="688.935,63.434 670.622,31.717 688.935,0 725.558,0 
		743.87,31.717 725.558,63.434 	"/>
	<polygon display="inline" fill="#FFFFFF" stroke="#000000" points="688.935,137.934 670.622,106.217 688.935,74.5 725.558,74.5 
		743.87,106.217 725.558,137.934 	"/>
	<polygon display="inline" fill="#FFFFFF" stroke="#000000" points="688.935,212.434 670.622,180.717 688.935,149 725.558,149 
		743.87,180.717 725.558,212.434 	"/>
	<polygon display="inline" fill="#FFFFFF" stroke="#000000" points="688.935,286.934 670.622,255.217 688.935,223.5 725.558,223.5 
		743.87,255.217 725.558,286.934 	"/>
	<polygon display="inline" fill="#FFFFFF" stroke="#000000" points="688.935,361.434 670.622,329.717 688.935,298 725.558,298 
		743.87,329.717 725.558,361.434 	"/>
	<polygon display="inline" fill="#FFFFFF" stroke="#000000" points="688.935,435.934 670.622,404.217 688.935,372.5 725.558,372.5 
		743.87,404.217 725.558,435.934 	"/>
	<polygon display="inline" fill="#FFFFFF" stroke="#000000" points="688.935,510.434 670.622,478.717 688.935,447 725.558,447 
		743.87,478.717 725.558,510.434 	"/>
	<polygon display="inline" fill="#FFFFFF" stroke="#000000" points="688.935,584.934 670.622,553.217 688.935,521.5 725.558,521.5 
		743.87,553.217 725.558,584.934 	"/>
	<polygon display="inline" fill="#FFFFFF" stroke="#000000" points="688.935,659.434 670.622,627.717 688.935,596 725.558,596 
		743.87,627.717 725.558,659.434 	"/>
	<polygon display="inline" fill="#FFFFFF" stroke="#000000" points="688.935,733.934 670.622,702.217 688.935,670.5 725.558,670.5 
		743.87,702.217 725.558,733.934 	"/>
	<polygon display="inline" fill="#FFFFFF" stroke="#000000" points="688.935,137.934 670.622,106.217 688.935,74.5 725.558,74.5 
		743.87,106.217 725.558,137.934 	"/>
	<polygon display="inline" fill="#FFFFFF" stroke="#000000" points="751.931,100.683 733.62,68.966 751.931,37.25 788.556,37.25 
		806.866,68.966 788.556,100.683 	"/>
	<polygon display="inline" fill="#FFFFFF" stroke="#000000" points="751.931,175.183 733.62,143.466 751.931,111.75 788.556,111.75 
		806.866,143.466 788.556,175.183 	"/>
	<polygon display="inline" fill="#FFFFFF" stroke="#000000" points="751.931,249.683 733.62,217.966 751.931,186.25 788.556,186.25 
		806.866,217.966 788.556,249.683 	"/>
	<polygon display="inline" fill="#FFFFFF" stroke="#000000" points="751.931,324.183 733.62,292.466 751.931,260.749 
		788.556,260.749 806.866,292.466 788.556,324.183 	"/>
	<polygon display="inline" fill="#FFFFFF" stroke="#000000" points="751.931,398.683 733.62,366.966 751.931,335.249 
		788.556,335.249 806.866,366.966 788.556,398.683 	"/>
	<polygon display="inline" fill="#FFFFFF" stroke="#000000" points="751.931,473.183 733.62,441.466 751.931,409.749 
		788.556,409.749 806.866,441.466 788.556,473.183 	"/>
	<polygon display="inline" fill="#FFFFFF" stroke="#000000" points="751.931,547.683 733.62,515.966 751.931,484.249 
		788.556,484.249 806.866,515.966 788.556,547.683 	"/>
	<polygon display="inline" fill="#FFFFFF" stroke="#000000" points="751.931,622.183 733.62,590.466 751.931,558.749 
		788.556,558.749 806.866,590.466 788.556,622.183 	"/>
	<polygon display="inline" fill="#FFFFFF" stroke="#000000" points="751.931,696.683 733.62,664.966 751.931,633.249 
		788.556,633.249 806.866,664.966 788.556,696.683 	"/>
	<polygon display="inline" fill="#FFFFFF" stroke="#000000" points="751.931,771.183 733.62,739.466 751.931,707.749 
		788.556,707.749 806.866,739.466 788.556,771.183 	"/>
	<polygon display="inline" fill="#FFFFFF" stroke="#000000" points="751.931,175.183 733.62,143.466 751.931,111.75 788.556,111.75 
		806.866,143.466 788.556,175.183 	"/>
	<polygon display="inline" fill="#FFFFFF" stroke="#000000" points="751.931,100.684 733.62,68.967 751.931,37.25 788.556,37.25 
		806.866,68.967 788.556,100.684 	"/>
	<polygon display="inline" fill="#FFFFFF" stroke="#000000" points="751.931,175.184 733.62,143.467 751.931,111.75 788.556,111.75 
		806.866,143.467 788.556,175.184 	"/>
	<polygon display="inline" fill="#FFFFFF" stroke="#000000" points="751.931,249.683 733.62,217.967 751.931,186.25 788.556,186.25 
		806.866,217.967 788.556,249.683 	"/>
	<polygon display="inline" fill="#FFFFFF" stroke="#000000" points="751.931,324.183 733.62,292.466 751.931,260.749 
		788.556,260.749 806.866,292.466 788.556,324.183 	"/>
	<polygon display="inline" fill="#FFFFFF" stroke="#000000" points="751.931,398.683 733.62,366.966 751.931,335.249 
		788.556,335.249 806.866,366.966 788.556,398.683 	"/>
	<polygon display="inline" fill="#FFFFFF" stroke="#000000" points="751.931,473.183 733.62,441.466 751.931,409.749 
		788.556,409.749 806.866,441.466 788.556,473.183 	"/>
	<polygon display="inline" fill="#FFFFFF" stroke="#000000" points="751.931,547.683 733.62,515.966 751.931,484.249 
		788.556,484.249 806.866,515.966 788.556,547.683 	"/>
	<polygon display="inline" fill="#FFFFFF" stroke="#000000" points="751.931,622.183 733.62,590.466 751.931,558.749 
		788.556,558.749 806.866,590.466 788.556,622.183 	"/>
	<polygon display="inline" fill="#FFFFFF" stroke="#000000" points="751.931,696.683 733.62,664.966 751.931,633.249 
		788.556,633.249 806.866,664.966 788.556,696.683 	"/>
	<polygon display="inline" fill="#FFFFFF" stroke="#000000" points="751.931,771.183 733.62,739.466 751.931,707.749 
		788.556,707.749 806.866,739.466 788.556,771.183 	"/>
	<polygon display="inline" fill="#FFFFFF" stroke="#000000" points="751.931,175.184 733.62,143.467 751.931,111.75 788.556,111.75 
		806.866,143.467 788.556,175.184 	"/>
	<polygon display="inline" fill="#FFFFFF" stroke="#000000" points="814.269,63.434 795.956,31.717 814.269,0 850.892,0 
		869.204,31.717 850.892,63.434 	"/>
	<polygon display="inline" fill="#FFFFFF" stroke="#000000" points="814.269,137.934 795.956,106.217 814.269,74.5 850.892,74.5 
		869.204,106.217 850.892,137.934 	"/>
	<polygon display="inline" fill="#FFFFFF" stroke="#000000" points="814.269,212.434 795.956,180.717 814.269,149 850.892,149 
		869.204,180.717 850.892,212.434 	"/>
	<polygon display="inline" fill="#FFFFFF" stroke="#000000" points="814.269,286.934 795.956,255.217 814.269,223.5 850.892,223.5 
		869.204,255.217 850.892,286.934 	"/>
	<polygon display="inline" fill="#FFFFFF" stroke="#000000" points="814.269,361.434 795.956,329.717 814.269,298 850.892,298 
		869.204,329.717 850.892,361.434 	"/>
	<polygon display="inline" fill="#FFFFFF" stroke="#000000" points="814.269,435.934 795.956,404.217 814.269,372.5 850.892,372.5 
		869.204,404.217 850.892,435.934 	"/>
	<polygon display="inline" fill="#FFFFFF" stroke="#000000" points="814.269,510.434 795.956,478.717 814.269,447 850.892,447 
		869.204,478.717 850.892,510.434 	"/>
	<polygon display="inline" fill="#FFFFFF" stroke="#000000" points="814.269,584.934 795.956,553.217 814.269,521.5 850.892,521.5 
		869.204,553.217 850.892,584.934 	"/>
	<polygon display="inline" fill="#FFFFFF" stroke="#000000" points="814.269,659.434 795.956,627.717 814.269,596 850.892,596 
		869.204,627.717 850.892,659.434 	"/>
	<polygon display="inline" fill="#FFFFFF" stroke="#000000" points="814.269,733.934 795.956,702.217 814.269,670.5 850.892,670.5 
		869.204,702.217 850.892,733.934 	"/>
	<polygon display="inline" fill="#FFFFFF" stroke="#000000" points="814.269,137.934 795.956,106.217 814.269,74.5 850.892,74.5 
		869.204,106.217 850.892,137.934 	"/>
	<polygon display="inline" fill="#FFFFFF" stroke="#000000" points="877.265,100.683 858.954,68.966 877.265,37.25 913.89,37.25 
		932.2,68.966 913.89,100.683 	"/>
	<polygon display="inline" fill="#FFFFFF" stroke="#000000" points="877.265,175.183 858.954,143.466 877.265,111.75 913.89,111.75 
		932.2,143.466 913.89,175.183 	"/>
	<polygon display="inline" fill="#FFFFFF" stroke="#000000" points="877.265,249.683 858.954,217.966 877.265,186.25 913.89,186.25 
		932.2,217.966 913.89,249.683 	"/>
	<polygon display="inline" fill="#FFFFFF" stroke="#000000" points="877.265,324.183 858.954,292.466 877.265,260.749 
		913.89,260.749 932.2,292.466 913.89,324.183 	"/>
	<polygon display="inline" fill="#FFFFFF" stroke="#000000" points="877.265,398.683 858.954,366.966 877.265,335.249 
		913.89,335.249 932.2,366.966 913.89,398.683 	"/>
	<polygon display="inline" fill="#FFFFFF" stroke="#000000" points="877.265,473.183 858.954,441.466 877.265,409.749 
		913.89,409.749 932.2,441.466 913.89,473.183 	"/>
	<polygon display="inline" fill="#FFFFFF" stroke="#000000" points="877.265,547.683 858.954,515.966 877.265,484.249 
		913.89,484.249 932.2,515.966 913.89,547.683 	"/>
	<polygon display="inline" fill="#FFFFFF" stroke="#000000" points="877.265,622.183 858.954,590.466 877.265,558.749 
		913.89,558.749 932.2,590.466 913.89,622.183 	"/>
	<polygon display="inline" fill="#FFFFFF" stroke="#000000" points="877.265,696.683 858.954,664.966 877.265,633.249 
		913.89,633.249 932.2,664.966 913.89,696.683 	"/>
	<polygon display="inline" fill="#FFFFFF" stroke="#000000" points="877.265,771.183 858.954,739.466 877.265,707.749 
		913.89,707.749 932.2,739.466 913.89,771.183 	"/>
	<polygon display="inline" fill="#FFFFFF" stroke="#000000" points="877.265,175.183 858.954,143.466 877.265,111.75 913.89,111.75 
		932.2,143.466 913.89,175.183 	"/>
	<polygon display="inline" fill="#FFFFFF" stroke="#000000" points="877.265,100.684 858.954,68.967 877.265,37.25 913.89,37.25 
		932.2,68.967 913.89,100.684 	"/>
	<polygon display="inline" fill="#FFFFFF" stroke="#000000" points="877.265,175.184 858.954,143.467 877.265,111.75 913.89,111.75 
		932.2,143.467 913.89,175.184 	"/>
	<polygon display="inline" fill="#FFFFFF" stroke="#000000" points="877.265,249.683 858.954,217.967 877.265,186.25 913.89,186.25 
		932.2,217.967 913.89,249.683 	"/>
	<polygon display="inline" fill="#FFFFFF" stroke="#000000" points="877.265,324.183 858.954,292.466 877.265,260.749 
		913.89,260.749 932.2,292.466 913.89,324.183 	"/>
	<polygon display="inline" fill="#FFFFFF" stroke="#000000" points="877.265,398.683 858.954,366.966 877.265,335.249 
		913.89,335.249 932.2,366.966 913.89,398.683 	"/>
	<polygon display="inline" fill="#FFFFFF" stroke="#000000" points="877.265,473.183 858.954,441.466 877.265,409.749 
		913.89,409.749 932.2,441.466 913.89,473.183 	"/>
	<polygon display="inline" fill="#FFFFFF" stroke="#000000" points="877.265,547.683 858.954,515.966 877.265,484.249 
		913.89,484.249 932.2,515.966 913.89,547.683 	"/>
	<polygon display="inline" fill="#FFFFFF" stroke="#000000" points="877.265,622.183 858.954,590.466 877.265,558.749 
		913.89,558.749 932.2,590.466 913.89,622.183 	"/>
	<polygon display="inline" fill="#FFFFFF" stroke="#000000" points="877.265,696.683 858.954,664.966 877.265,633.249 
		913.89,633.249 932.2,664.966 913.89,696.683 	"/>
	<polygon display="inline" fill="#FFFFFF" stroke="#000000" points="877.265,771.183 858.954,739.466 877.265,707.749 
		913.89,707.749 932.2,739.466 913.89,771.183 	"/>
	<polygon display="inline" fill="#FFFFFF" stroke="#000000" points="877.265,175.184 858.954,143.467 877.265,111.75 913.89,111.75 
		932.2,143.467 913.89,175.184 	"/>
	<polygon display="inline" fill="#FFFFFF" stroke="#000000" points="939.603,63.434 921.29,31.717 939.603,0 976.226,0 
		994.538,31.717 976.226,63.434 	"/>
	<polygon display="inline" fill="#FFFFFF" stroke="#000000" points="939.603,137.934 921.29,106.217 939.603,74.5 976.226,74.5 
		994.538,106.217 976.226,137.934 	"/>
	<polygon display="inline" fill="#FFFFFF" stroke="#000000" points="939.603,212.434 921.29,180.717 939.603,149 976.226,149 
		994.538,180.717 976.226,212.434 	"/>
	<polygon display="inline" fill="#FFFFFF" stroke="#000000" points="939.603,286.934 921.29,255.217 939.603,223.5 976.226,223.5 
		994.538,255.217 976.226,286.934 	"/>
	<polygon display="inline" fill="#FFFFFF" stroke="#000000" points="939.603,361.434 921.29,329.717 939.603,298 976.226,298 
		994.538,329.717 976.226,361.434 	"/>
	<polygon display="inline" fill="#FFFFFF" stroke="#000000" points="939.603,435.934 921.29,404.217 939.603,372.5 976.226,372.5 
		994.538,404.217 976.226,435.934 	"/>
	<polygon display="inline" fill="#FFFFFF" stroke="#000000" points="939.603,510.434 921.29,478.717 939.603,447 976.226,447 
		994.538,478.717 976.226,510.434 	"/>
	<polygon display="inline" fill="#FFFFFF" stroke="#000000" points="939.603,584.934 921.29,553.217 939.603,521.5 976.226,521.5 
		994.538,553.217 976.226,584.934 	"/>
	<polygon display="inline" fill="#FFFFFF" stroke="#000000" points="939.603,659.434 921.29,627.717 939.603,596 976.226,596 
		994.538,627.717 976.226,659.434 	"/>
	<polygon display="inline" fill="#FFFFFF" stroke="#000000" points="939.603,733.934 921.29,702.217 939.603,670.5 976.226,670.5 
		994.538,702.217 976.226,733.934 	"/>
	<polygon display="inline" fill="#FFFFFF" stroke="#000000" points="939.603,137.934 921.29,106.217 939.603,74.5 976.226,74.5 
		994.538,106.217 976.226,137.934 	"/>
	<polygon display="inline" fill="#FFFFFF" stroke="#000000" points="1002.599,100.683 984.288,68.966 1002.599,37.25 
		1039.224,37.25 1057.534,68.966 1039.224,100.683 	"/>
	<polygon display="inline" fill="#FFFFFF" stroke="#000000" points="1002.599,175.183 984.288,143.466 1002.599,111.75 
		1039.224,111.75 1057.534,143.466 1039.224,175.183 	"/>
	<polygon display="inline" fill="#FFFFFF" stroke="#000000" points="1002.599,249.683 984.288,217.966 1002.599,186.25 
		1039.224,186.25 1057.534,217.966 1039.224,249.683 	"/>
	<polygon display="inline" fill="#FFFFFF" stroke="#000000" points="1002.599,324.183 984.288,292.466 1002.599,260.749 
		1039.224,260.749 1057.534,292.466 1039.224,324.183 	"/>
	<polygon display="inline" fill="#FFFFFF" stroke="#000000" points="1002.599,398.683 984.288,366.966 1002.599,335.249 
		1039.224,335.249 1057.534,366.966 1039.224,398.683 	"/>
	<polygon display="inline" fill="#FFFFFF" stroke="#000000" points="1002.599,473.183 984.288,441.466 1002.599,409.749 
		1039.224,409.749 1057.534,441.466 1039.224,473.183 	"/>
	<polygon display="inline" fill="#FFFFFF" stroke="#000000" points="1002.599,547.683 984.288,515.966 1002.599,484.249 
		1039.224,484.249 1057.534,515.966 1039.224,547.683 	"/>
	<polygon display="inline" fill="#FFFFFF" stroke="#000000" points="1002.599,622.183 984.288,590.466 1002.599,558.749 
		1039.224,558.749 1057.534,590.466 1039.224,622.183 	"/>
	<polygon display="inline" fill="#FFFFFF" stroke="#000000" points="1002.599,696.683 984.288,664.966 1002.599,633.249 
		1039.224,633.249 1057.534,664.966 1039.224,696.683 	"/>
	<polygon display="inline" fill="#FFFFFF" stroke="#000000" points="1002.599,771.183 984.288,739.466 1002.599,707.749 
		1039.224,707.749 1057.534,739.466 1039.224,771.183 	"/>
	<polygon display="inline" fill="#FFFFFF" stroke="#000000" points="1002.599,175.183 984.288,143.466 1002.599,111.75 
		1039.224,111.75 1057.534,143.466 1039.224,175.183 	"/>
	<polygon display="inline" fill="#FFFFFF" stroke="#000000" points="1002.599,100.684 984.288,68.967 1002.599,37.25 
		1039.224,37.25 1057.534,68.967 1039.224,100.684 	"/>
	<polygon display="inline" fill="#FFFFFF" stroke="#000000" points="1002.599,175.184 984.288,143.467 1002.599,111.75 
		1039.224,111.75 1057.534,143.467 1039.224,175.184 	"/>
	<polygon display="inline" fill="#FFFFFF" stroke="#000000" points="1002.599,249.683 984.288,217.967 1002.599,186.25 
		1039.224,186.25 1057.534,217.967 1039.224,249.683 	"/>
	<polygon display="inline" fill="#FFFFFF" stroke="#000000" points="1002.599,324.183 984.288,292.466 1002.599,260.749 
		1039.224,260.749 1057.534,292.466 1039.224,324.183 	"/>
	<polygon display="inline" fill="#FFFFFF" stroke="#000000" points="1002.599,398.683 984.288,366.966 1002.599,335.249 
		1039.224,335.249 1057.534,366.966 1039.224,398.683 	"/>
	<polygon display="inline" fill="#FFFFFF" stroke="#000000" points="1002.599,473.183 984.288,441.466 1002.599,409.749 
		1039.224,409.749 1057.534,441.466 1039.224,473.183 	"/>
	<polygon display="inline" fill="#FFFFFF" stroke="#000000" points="1002.599,547.683 984.288,515.966 1002.599,484.249 
		1039.224,484.249 1057.534,515.966 1039.224,547.683 	"/>
	<polygon display="inline" fill="#FFFFFF" stroke="#000000" points="1002.599,622.183 984.288,590.466 1002.599,558.749 
		1039.224,558.749 1057.534,590.466 1039.224,622.183 	"/>
	<polygon display="inline" fill="#FFFFFF" stroke="#000000" points="1002.599,696.683 984.288,664.966 1002.599,633.249 
		1039.224,633.249 1057.534,664.966 1039.224,696.683 	"/>
	<polygon display="inline" fill="#FFFFFF" stroke="#000000" points="1002.599,771.183 984.288,739.466 1002.599,707.749 
		1039.224,707.749 1057.534,739.466 1039.224,771.183 	"/>
	<polygon display="inline" fill="#FFFFFF" stroke="#000000" points="1002.599,175.184 984.288,143.467 1002.599,111.75 
		1039.224,111.75 1057.534,143.467 1039.224,175.184 	"/>
</g>
<g id="new_same_size" display="none">
	<g display="inline">
		<polygon fill="none" stroke="#BCBEC0" points="61.435,254.267 39.067,215.524 61.435,176.781 106.172,176.781 128.541,215.524 
			106.172,254.267 		"/>
		<polygon fill="none" stroke="#BCBEC0" points="137.581,299.769 115.213,261.026 137.581,222.283 182.318,222.283 204.686,261.026 
			182.318,299.769 		"/>
		<polygon fill="none" stroke="#BCBEC0" points="137.581,390.772 115.213,352.03 137.581,313.287 182.318,313.287 204.686,352.03 
			182.318,390.772 		"/>
		<polygon fill="none" stroke="#BCBEC0" points="137.581,208.766 115.213,170.023 137.581,131.28 182.318,131.28 204.686,170.023 
			182.318,208.766 		"/>
		<polygon fill="none" stroke="#BCBEC0" points="214.532,345.27 192.166,306.528 214.532,267.785 259.271,267.785 281.637,306.528 
			259.271,345.27 		"/>
		<polygon fill="none" stroke="#BCBEC0" points="214.532,436.273 192.166,397.53 214.532,358.788 259.271,358.788 281.637,397.53 
			259.271,436.273 		"/>
		<polygon fill="none" stroke="#BCBEC0" points="214.532,254.267 192.166,215.524 214.532,176.781 259.271,176.781 281.637,215.524 
			259.271,254.267 		"/>
		<polygon fill="none" stroke="#BCBEC0" points="290.68,299.769 268.31,261.026 290.68,222.283 335.416,222.283 357.784,261.026 
			335.416,299.769 		"/>
		<polygon fill="none" stroke="#BCBEC0" points="290.68,390.772 268.31,352.03 290.68,313.287 335.416,313.287 357.784,352.03 
			335.416,390.772 		"/>
		<polygon fill="none" stroke="#BCBEC0" points="367.631,163.264 345.264,124.521 367.631,85.778 412.369,85.778 434.735,124.521 
			412.369,163.264 		"/>
		<polygon fill="none" stroke="#BCBEC0" points="367.631,345.27 345.264,306.528 367.631,267.785 412.369,267.785 434.735,306.528 
			412.369,345.27 		"/>
		<polygon fill="none" stroke="#BCBEC0" points="367.631,436.273 345.264,397.53 367.631,358.788 412.369,358.788 434.735,397.53 
			412.369,436.273 		"/>
		<polygon fill="none" stroke="#BCBEC0" points="367.631,254.267 345.264,215.524 367.631,176.781 412.369,176.781 434.735,215.524 
			412.369,254.267 		"/>
		<polygon fill="none" stroke="#BCBEC0" points="443.778,299.769 421.409,261.026 443.778,222.283 488.515,222.283 510.884,261.026 
			488.515,299.769 		"/>
		<polygon fill="none" stroke="#BCBEC0" points="443.778,390.772 421.409,352.03 443.778,313.287 488.515,313.287 510.884,352.03 
			488.515,390.772 		"/>
		<polygon fill="none" stroke="#BCBEC0" points="443.778,208.766 421.409,170.023 443.778,131.28 488.515,131.28 510.884,170.023 
			488.515,208.766 		"/>
		<polygon fill="none" stroke="#BCBEC0" points="520.729,345.27 498.362,306.528 520.729,267.785 565.468,267.785 587.835,306.528 
			565.468,345.27 		"/>
		<polygon fill="none" stroke="#BCBEC0" points="520.729,436.273 498.362,397.53 520.729,358.788 565.468,358.788 587.835,397.53 
			565.468,436.273 		"/>
		<polygon fill="none" stroke="#BCBEC0" points="520.729,254.267 498.362,215.524 520.729,176.781 565.468,176.781 587.835,215.524 
			565.468,254.267 		"/>
		<polygon fill="none" stroke="#BCBEC0" points="596.876,299.769 574.509,261.026 596.876,222.283 641.612,222.283 663.981,261.026 
			641.612,299.769 		"/>
		<polygon fill="none" stroke="#BCBEC0" points="596.876,390.772 574.509,352.03 596.876,313.287 641.612,313.287 663.981,352.03 
			641.612,390.772 		"/>
		<polygon fill="none" stroke="#BCBEC0" points="596.876,208.766 574.509,170.023 596.876,131.28 641.612,131.28 663.981,170.023 
			641.612,208.766 		"/>
		<polygon fill="none" stroke="#BCBEC0" points="673.827,163.264 651.462,124.521 673.827,85.778 718.565,85.778 740.933,124.521 
			718.565,163.264 		"/>
		<polygon fill="none" stroke="#BCBEC0" points="673.827,254.267 651.462,215.524 673.827,176.781 718.565,176.781 740.933,215.524 
			718.565,254.267 		"/>
	</g>
</g>
<g id="new2">
	<polygon fill="none" stroke="#BCBEC0" points="49.435,242.267 27.067,203.524 49.435,164.781 94.172,164.781 116.541,203.524 
		94.172,242.267 	"/>
	<polygon fill="none" stroke="#BCBEC0" points="125.581,287.769 103.213,249.026 125.581,210.283 170.318,210.283 192.686,249.026 
		170.318,287.769 	"/>
	<polygon fill="none" stroke="#BCBEC0" points="202.532,333.27 180.166,294.528 202.532,255.785 247.271,255.785 269.637,294.528 
		247.271,333.27 	"/>
	<polygon fill="none" stroke="#BCBEC0" points="202.532,242.267 180.166,203.524 202.532,164.781 247.271,164.781 269.637,203.524 
		247.271,242.267 	"/>
	<polygon fill="none" stroke="#BCBEC0" points="49.437,385.531 27.067,346.789 49.437,308.046 94.172,308.046 116.541,346.789 
		94.172,385.531 	"/>
	<polygon fill="none" stroke="#BCBEC0" points="288.428,368.644 275.811,346.788 288.428,324.932 313.667,324.932 326.284,346.788 
		313.667,368.644 	"/>
	<polygon fill="none" stroke="#BCBEC0" points="757.051,77.952 744.433,56.097 757.051,34.241 782.289,34.241 794.906,56.097 
		782.289,77.952 	"/>
	<polygon fill="none" stroke="#BCBEC0" points="922.257,125.15 909.64,103.295 922.257,81.439 947.495,81.439 960.112,103.295 
		947.495,125.15 	"/>
	<polygon fill="none" stroke="#BCBEC0" points="377.899,147.006 365.281,125.15 377.899,103.294 403.138,103.294 415.755,125.15 
		403.138,147.006 	"/>
	<polygon fill="none" stroke="#BCBEC0" points="142.31,355.126 129.692,333.271 142.31,311.414 167.548,311.414 180.166,333.271 
		167.548,355.126 	"/>
	<polygon fill="none" stroke="#BCBEC0" points="65.357,294.527 52.74,272.672 65.357,250.815 90.596,250.815 103.213,272.672 
		90.596,294.527 	"/>
	<polygon fill="none" stroke="#BCBEC0" points="518.479,309.624 505.862,287.769 518.479,265.912 543.718,265.912 556.335,287.769 
		543.718,309.624 	"/>
	<polygon fill="none" stroke="#BCBEC0" points="365.381,511.72 352.764,489.864 365.381,468.008 390.619,468.008 403.236,489.864 
		390.619,511.72 	"/>
	<polygon fill="none" stroke="#BCBEC0" points="441.527,179.879 428.91,158.023 441.527,136.167 466.766,136.167 479.383,158.023 
		466.766,179.879 	"/>
	<polygon fill="none" stroke="#BCBEC0" points="350.872,318.269 333.264,287.77 350.872,257.269 386.092,257.269 403.7,287.77 
		386.092,318.269 	"/>
	<polygon fill="none" stroke="#BCBEC0" points="599.154,340.124 581.546,309.625 599.154,279.124 634.374,279.124 651.981,309.625 
		634.374,340.124 	"/>
	<polygon fill="none" stroke="#BCBEC0" points="288.428,270.882 275.811,249.026 288.428,227.17 313.667,227.17 326.284,249.026 
		313.667,270.882 	"/>
	<polygon fill="none" stroke="#BCBEC0" points="288.428,201.735 275.811,179.879 288.428,158.023 313.667,158.023 326.284,179.879 
		313.667,201.735 	"/>
	<polygon fill="none" stroke="#BCBEC0" points="355.631,424.273 333.264,385.53 355.631,346.788 400.369,346.788 422.735,385.53 
		400.369,424.273 	"/>
	<polygon fill="none" stroke="#BCBEC0" points="288.004,489.863 265.637,451.12 288.004,412.378 332.742,412.378 355.108,451.12 
		332.742,489.863 	"/>
	<polygon fill="none" stroke="#BCBEC0" points="355.631,242.267 333.264,203.524 355.631,164.781 400.369,164.781 422.735,203.524 
		400.369,242.267 	"/>
	<polygon fill="none" stroke="#BCBEC0" points="431.778,287.769 409.409,249.026 431.778,210.283 476.515,210.283 498.884,249.026 
		476.515,287.769 	"/>
	<polygon fill="none" stroke="#BCBEC0" points="431.778,378.772 409.409,340.03 431.778,301.287 476.515,301.287 498.884,340.03 
		476.515,378.772 	"/>
	<polygon fill="none" stroke="#BCBEC0" points="887.271,227.075 864.901,188.333 887.271,149.591 932.007,149.591 954.376,188.333 
		932.007,227.075 	"/>
	<polygon fill="none" stroke="#BCBEC0" points="842.534,84 820.167,45.259 842.534,6.516 887.272,6.516 909.64,45.259 887.272,84 	
		"/>
	<polygon fill="none" stroke="#BCBEC0" points="508.729,242.267 486.362,203.524 508.729,164.781 553.468,164.781 575.835,203.524 
		553.468,242.267 	"/>
	<polygon fill="none" stroke="#BCBEC0" points="594.395,196.766 572.027,158.023 594.395,119.28 639.131,119.28 661.5,158.023 
		639.131,196.766 	"/>
	<polygon fill="none" stroke="#BCBEC0" points="677.327,151.264 654.962,112.521 677.327,73.778 722.065,73.778 744.433,112.521 
		722.065,151.264 	"/>
	<polygon fill="none" stroke="#BCBEC0" points="677.327,249.026 654.962,210.284 677.327,171.541 722.065,171.541 744.433,210.284 
		722.065,249.026 	"/>
	<polygon fill="none" stroke="#BCBEC0" points="298.176,133.582 275.811,94.84 298.176,56.097 342.914,56.097 365.281,94.84 
		342.914,133.582 	"/>
	<polygon fill="none" stroke="#BCBEC0" points="125.58,196.766 103.214,158.023 125.58,119.28 170.318,119.28 192.685,158.023 
		170.318,196.766 	"/>
	<polygon fill="none" stroke="#BCBEC0" points="426.065,489.863 403.7,451.121 426.065,412.378 470.804,412.378 493.171,451.121 
		470.804,489.863 	"/>
	<polygon fill="none" stroke="#BCBEC0" points="604.374,90.665 582.009,51.923 604.374,13.18 649.112,13.18 671.479,51.923 
		649.112,90.665 	"/>
	<polygon fill="none" stroke="#BCBEC0" points="30.114,149.591 0,97.425 30.114,45.258 90.354,45.258 120.471,97.425 
		90.354,149.591 	"/>
	<polygon fill="none" stroke="#BCBEC0" points="500.978,147.006 470.863,94.84 500.978,42.673 561.217,42.673 591.334,94.84 
		561.217,147.006 	"/>
	<polygon fill="none" stroke="#BCBEC0" points="508.752,451.121 478.638,398.955 508.752,346.788 568.991,346.788 599.108,398.955 
		568.991,451.121 	"/>
	<polygon fill="none" stroke="#BCBEC0" points="774.547,203.43 744.433,151.264 774.547,99.097 834.786,99.097 864.903,151.264 
		834.786,203.43 	"/>
	<polygon fill="none" stroke="#BCBEC0" points="185.043,451.121 154.929,398.955 185.043,346.788 245.282,346.788 275.399,398.955 
		245.282,451.121 	"/>
</g>
</svg>
